# xmcd CD database file
#
# Track frame offsets:
#	150
#	6017
#	34628
#	58922
#	83055
#	107628
#	129608
#	136219
#
# Disc length: 2200 seconds
#
# Revision: 0
# Processed by: cddbd v1.5.1PL2 Copyright (c) Steve Scherf et al.
# Submitted via: CDex 1.60beta1
#
DISCID=61089608
DTITLE=LOD - なのループ
DYEAR=1900
DGENRE=エレクトロニック (一般)
TTITLE0=welcomm
TTITLE1=98.35 Percent
TTITLE2=testimonial
TTITLE3=mun
TTITLE4=supertiyo
TTITLE5=hiom (Ice Age Mix)
TTITLE6=nagisa (Air Preview Mix)
TTITLE7=haa?-Ep
EXTD=
EXTT0=
EXTT1=
EXTT2=
EXTT3=
EXTT4=
EXTT5=
EXTT6=
EXTT7=
PLAYORDER=
